<?xml version="1.0" encoding="utf-8"?>
<!-- Generator: Adobe Illustrator 25.2.1, SVG Export Plug-In . SVG Version: 6.00 Build 0)  -->
<svg version="1.1" id="Layer_1" xmlns="http://www.w3.org/2000/svg" xmlns:xlink="http://www.w3.org/1999/xlink" x="0px" y="0px"
	 viewBox="0 0 75.54 72.32" style="enable-background:new 0 0 75.54 72.32;" xml:space="preserve">
<style type="text/css">
	.st0{fill:#ED1C24;}
	.st1{fill:#32A149;}
	.st2{fill:#29A74A;}
	.st3{fill:#399A48;}
	.st4{fill:#FFCB05;}
</style>
<path class="st0" d="M59.41,36.51c0,12.2-9.89,22.08-22.08,22.08s-22.09-9.89-22.09-22.08c0-12.2,9.89-22.09,22.09-22.09
	S59.41,24.32,59.41,36.51z"/>
<path class="st1" d="M29.74,59.39l-0.93,2.05l-0.39,0.79l-0.4-0.2c-0.07-0.17-0.21-0.36-0.4-0.55l0.64-1.4
	c-0.21-0.42-0.36-0.66-0.48-0.71c-0.07-0.03-0.2-0.02-0.39,0.04c-0.24,0.09-0.6,0.21-1.09,0.38c-0.48,0.14-0.9,0.14-1.25-0.03
	c-0.37-0.17-0.65-0.51-0.82-1.02l0.43-0.21c0.08,0.09,0.17,0.25,0.27,0.45c0.04,0.09,0.11,0.15,0.22,0.2c0.08,0.04,0.28,0.04,0.59,0
	c0.31-0.04,0.48-0.09,0.51-0.14c0.08-0.17-0.04-0.39-0.35-0.66c-0.27-0.24-0.6-0.45-1-0.63c0.1-0.19,0.21-0.33,0.32-0.43l-0.61-0.28
	l-0.4-0.18l0.23-0.51l6.45,2.93l-0.23,0.51L29.74,59.39z M28.79,58.96l-2.08-0.94c0.07,0.31,0.06,0.6-0.03,0.87
	c0.11,0.01,0.32,0,0.62-0.02c0.24-0.02,0.46-0.01,0.67,0.01c0.16,0.19,0.33,0.45,0.49,0.79c0.05-0.08,0.09-0.15,0.12-0.21
	C28.61,59.39,28.68,59.22,28.79,58.96z"/>
<path class="st1" d="M34.55,60.37l-0.62,3.08l-0.46-0.09c-0.89-1-2.15-1.66-3.78-1.98l-0.06-0.88c0.45-0.06,1.09-0.09,1.94-0.11
	c0.9-0.02,1.54-0.05,1.93-0.08l0.03-0.13l-4.09-0.82l0.11-0.54l6.24,1.26l-0.11,0.54L34.55,60.37z M31.29,63.19
	c-0.21-0.04-0.38-0.11-0.54-0.2c-0.21-0.14-0.3-0.29-0.27-0.46c0.07-0.33,0.36-0.44,0.87-0.33c0.2,0.04,0.37,0.11,0.51,0.21
	c0.18,0.13,0.26,0.28,0.22,0.46c-0.03,0.15-0.14,0.26-0.32,0.32C31.62,63.22,31.46,63.22,31.29,63.19z M33.35,60.99
	c-0.72,0.01-1.41,0.04-2.06,0.11c0.74,0.42,1.34,0.84,1.78,1.26L33.35,60.99z"/>
<path class="st1" d="M39.58,60.33l0.01,0.22c0.56-0.02,1.05,0.04,1.47,0.17c0.61,0.19,0.93,0.51,0.96,0.95
	c0.01,0.22-0.13,0.42-0.42,0.58c-0.24,0.13-0.49,0.2-0.74,0.21c-0.19,0.01-0.35-0.01-0.49-0.07c-0.18-0.08-0.28-0.21-0.29-0.37
	c-0.01-0.15,0.04-0.27,0.14-0.36c0.11-0.09,0.24-0.14,0.39-0.14c0.19-0.01,0.4,0.05,0.65,0.19c0.09-0.04,0.13-0.08,0.13-0.13
	c-0.02-0.35-0.49-0.5-1.4-0.44c-0.09,0-0.21,0.01-0.38,0.03l0.13,2.25l-0.46,0.03c-0.6-0.4-1.14-0.66-1.64-0.78
	c-0.43-0.11-1.13-0.18-2.1-0.21l-0.53-0.73c1.21-0.31,2.39-0.67,3.54-1.08c-0.01-0.12-0.01-0.2,0-0.25l-4.03,0.23l-0.05-0.52
	l8.28-0.46l0.03,0.53L39.58,60.33z M38.67,61.82c0,0.04-0.01-0.11-0.04-0.45c-0.79,0.19-1.4,0.36-1.84,0.53
	c0.49,0.14,1.13,0.36,1.92,0.67L38.67,61.82z"/>
<path class="st1" d="M43.6,59.61l0.76,3.01l-0.38,0.1c-0.1-0.08-0.33-0.17-0.71-0.25l-0.66-2.6l-1.03,0.26l-0.13-0.53l1.05-0.26
	l-0.16-0.61l0.38-0.11l0.56,0.53l1.22-0.31l0.13,0.53L43.6,59.61z"/>
<path class="st1" d="M48.57,57.74l1.22,2.88l-0.43,0.18c-1.29-0.32-2.71-0.15-4.24,0.51l-0.55-0.68c0.34-0.3,0.85-0.7,1.53-1.19
	c0.73-0.53,1.25-0.91,1.55-1.16l-0.05-0.12l-3.84,1.63l-0.21-0.51l5.86-2.49l0.22,0.51L48.57,57.74z M47.93,58.92
	c-0.59,0.41-1.14,0.83-1.64,1.25c0.85-0.08,1.58-0.07,2.18,0.03L47.93,58.92z M47.48,61.9c-0.19,0.08-0.38,0.13-0.56,0.14
	c-0.25,0.01-0.41-0.07-0.48-0.23c-0.13-0.31,0.05-0.56,0.53-0.77c0.19-0.08,0.37-0.12,0.54-0.12c0.22,0,0.37,0.09,0.44,0.25
	c0.06,0.14,0.03,0.29-0.08,0.44C47.77,61.73,47.64,61.83,47.48,61.9z"/>
<path class="st2" d="M11.26,31.49l2.72,0.34l-0.11,0.9c-0.49-0.06-0.73-0.09-0.73-0.09l-0.68-0.08c-0.47-0.06-0.82,0.04-1.04,0.29
	c-0.18,0.21-0.31,0.56-0.37,1.07c-0.06,0.47-0.03,0.71,0.08,0.72c0.01,0,0.02-0.01,0.04-0.02l0.02-0.08
	c0.01-0.03,0.01-0.05,0.01-0.08c0.01-0.04,0.01-0.11,0.01-0.2c0-0.09,0-0.16,0.01-0.2c0.02-0.2,0.1-0.39,0.24-0.58
	c0.16-0.23,0.32-0.34,0.5-0.31c0.25,0.03,0.41,0.27,0.47,0.72c0.05,0.35,0.05,0.77-0.02,1.26l-0.55,0.33
	c0.01-0.12,0.03-0.23,0.05-0.34l0.02-0.18c0.1-0.81,0.04-1.22-0.19-1.25c-0.14-0.02-0.23,0.11-0.26,0.38
	c-0.03,0.27,0.02,0.56,0.17,0.87c-0.21,0.31-0.43,0.46-0.66,0.43c-0.23-0.03-0.4-0.17-0.51-0.42c-0.1-0.22-0.13-0.45-0.1-0.69
	c0.07-0.56,0.38-1.18,0.93-1.86l-0.66-0.08l0.23-1.88l0.49,0.06L11.26,31.49z"/>
<path class="st2" d="M12.97,25.93l2.59,0.9l-0.17,0.44c-0.5,0.16-0.85,0.29-1.04,0.4c-0.41,0.23-0.71,0.56-0.88,0.99
	c0.02,0.01,0.04,0.02,0.06,0.02c0.19,0.06,0.29,0.2,0.32,0.41c0.03,0.16,0,0.34-0.07,0.55c-0.08,0.22-0.19,0.42-0.35,0.59
	c-0.2,0.22-0.39,0.3-0.58,0.24c-0.21-0.07-0.34-0.26-0.37-0.57c-0.03-0.25-0.01-0.49,0.07-0.72c0.11-0.31,0.36-0.66,0.77-1.05
	c0.21-0.2,0.52-0.47,0.95-0.81l-1.59-0.55l-1.32,3.81l-0.46-0.16l2.01-5.8l0.46,0.16L12.97,25.93z"/>
<path class="st2" d="M15.85,20.92l2.31,1.43l-0.23,0.36l-0.51,0.27l-0.87-0.57c0,0-0.12-0.07-0.34-0.21
	c-0.15-0.08-0.29-0.11-0.4-0.08l-0.14,2l-0.62,0.5c0.07-0.5,0.07-0.76,0-0.8c-0.11-0.07-0.21-0.02-0.32,0.15
	c-0.05,0.08-0.12,0.2-0.2,0.37c-0.09,0.17-0.15,0.29-0.2,0.37c-0.19,0.31-0.39,0.39-0.62,0.25c-0.17-0.11-0.22-0.38-0.14-0.81
	c0.06-0.37,0.16-0.66,0.29-0.86c0.38-0.62,0.93-1.11,1.65-1.47c-0.18-0.11-0.36-0.23-0.55-0.37l1.01-1.63l0.41,0.25L15.85,20.92z
	 M15.17,23.12l0.02-0.72c-0.25,0.11-0.47,0.33-0.69,0.68c-0.1,0.16-0.17,0.32-0.21,0.48c-0.07,0.23-0.05,0.39,0.05,0.48
	c0.03-0.01,0.05-0.02,0.07-0.03c0.04-0.05,0.18-0.26,0.41-0.64C14.91,23.23,15.03,23.14,15.17,23.12z"/>
<path class="st2" d="M18.18,22.99c-0.31,0.03-0.59,0.2-0.83,0.5c-0.15,0.19-0.33,0.51-0.54,0.96c-0.21,0.45-0.39,0.77-0.55,0.97
	c-0.19,0.25-0.44,0.44-0.73,0.57c-0.36,0.17-0.64,0.17-0.87,0l-0.14-0.11l0.29-0.36c0.42,0.13,0.75,0.05,0.97-0.24
	c0.13-0.16,0.29-0.43,0.47-0.81c0.19-0.38,0.35-0.65,0.48-0.81c0.21-0.27,0.47-0.51,0.78-0.71l-0.17-0.13l0.49-0.63l0.6,0.47
	L18.18,22.99z"/>
<path class="st2" d="M19.3,17.18c0.42-0.07,0.75-0.22,1-0.45c0.08-0.08,0.19-0.22,0.34-0.44l0.85,0.01c-0.16,0.4-0.2,0.74-0.11,1.03
	c0.07,0.21,0.22,0.44,0.47,0.69c0.06,0.06,0.26,0.17,0.6,0.32l-0.17,0.35c-0.68-0.16-1.13-0.36-1.36-0.6
	c-0.1-0.1-0.24-0.37-0.41-0.8c-0.35,0.18-0.62,0.28-0.8,0.32c-0.21,0.04-0.44,0.02-0.69-0.06c-0.18,0.28-0.3,0.55-0.36,0.79
	c-0.08,0.29-0.07,0.5,0.04,0.61c0.08,0.08,0.16,0.08,0.24,0c0.13-0.13,0.23-0.43,0.29-0.91c0.52-0.12,0.92-0.04,1.18,0.24
	c0.18,0.19,0.25,0.43,0.21,0.71c-0.05,0.32-0.23,0.62-0.54,0.92c-0.57,0.55-1.18,0.76-1.82,0.64c-0.24-0.05-0.7-0.26-1.38-0.63
	l0.36-0.43c0.46,0.31,0.88,0.46,1.25,0.46c0.41,0,0.81-0.19,1.2-0.57c0.12-0.11,0.21-0.24,0.27-0.39c0.08-0.19,0.06-0.33-0.04-0.44
	c-0.04-0.04-0.08-0.07-0.13-0.1c-0.07,0.22-0.18,0.41-0.34,0.56c-0.3,0.29-0.61,0.43-0.92,0.42c-0.24-0.01-0.45-0.11-0.62-0.29
	c-0.06-0.06-0.1-0.24-0.11-0.54l-1.6,1.54l-0.34-0.35l5.28-5.08l0.34,0.35L19.3,17.18z"/>
<path class="st2" d="M22.97,14.34l1.51,2.29l-0.29,0.19c-0.11-0.04-0.33-0.04-0.67,0l-1.31-1.99l-0.78,0.52l-0.27-0.41l0.8-0.53
	l-0.31-0.47l0.29-0.21l0.62,0.28l0.93-0.61l0.27,0.41L22.97,14.34z"/>
<path class="st2" d="M23.4,13.8l-0.19-0.44l6.39-2.79l0.19,0.44L23.4,13.8z M28.03,14.83c-0.74,0.32-1.42,0.39-2.06,0.21
	c-0.63-0.18-1.19-0.6-1.65-1.24l0.33-0.25c0.45,0.48,0.85,0.79,1.22,0.93c0.53,0.2,1.14,0.16,1.81-0.14
	c0.3-0.13,0.58-0.31,0.82-0.55c0.33-0.31,0.44-0.59,0.32-0.84c-0.09-0.22-0.28-0.34-0.56-0.37c-0.24-0.02-0.47,0.01-0.7,0.11
	c-0.25,0.11-0.36,0.2-0.33,0.26c0.01,0.02,0.09,0.04,0.23,0.07c0.14,0.02,0.23,0.06,0.25,0.12c0.07,0.15,0.02,0.32-0.13,0.48
	c-0.12,0.13-0.27,0.23-0.45,0.31c-0.22,0.1-0.43,0.14-0.62,0.13c-0.24-0.02-0.4-0.13-0.49-0.34c-0.1-0.23,0.01-0.5,0.32-0.79
	c0.24-0.22,0.5-0.39,0.79-0.52c0.41-0.18,0.84-0.25,1.29-0.22c0.55,0.03,0.9,0.23,1.06,0.6c0.17,0.38,0.06,0.79-0.33,1.23
	C28.83,14.38,28.46,14.64,28.03,14.83z"/>
<path class="st2" d="M34.77,10.25l0.25,1.48l-0.75,0.12l-0.17-0.5c-0.38-0.17-0.84-0.25-1.39-0.24c0.03,0.06,0.05,0.11,0.05,0.15
	c0.04,0.27-0.12,0.44-0.5,0.5c-0.18,0.03-0.36,0.02-0.52-0.02c-0.21-0.06-0.33-0.16-0.36-0.33c-0.05-0.33,0.16-0.54,0.65-0.62
	c0.47-0.08,1.11-0.05,1.92,0.09l-0.08-0.5l-4.13,0.68l-0.08-0.48l6.75-1.12l0.08,0.48L34.77,10.25z"/>
<path class="st2" d="M35.17,13.14l-0.43,0.02l-0.16-0.06c-0.19,0-0.31,0-0.36,0c-0.19,0.01-0.48,0.04-0.87,0.11
	c-0.38,0.06-0.67,0.1-0.87,0.11c-0.38,0.02-0.7-0.02-0.95-0.1c-0.37-0.12-0.55-0.34-0.57-0.66c0-0.03,0-0.12,0.01-0.25l0.54-0.04
	c0.02,0.44,0.22,0.65,0.59,0.63c0.18-0.01,0.44-0.04,0.79-0.1c0.35-0.06,0.61-0.09,0.79-0.1c0.16-0.01,0.34,0.02,0.55,0.07
	c-0.01-0.07-0.01-0.2-0.01-0.38c0.01-0.14,0.01-0.27,0-0.39c-0.01-0.32-0.19-0.47-0.51-0.46c-0.03,0-0.07,0.01-0.13,0.01l-0.25,0.19
	c0.4,0.02,0.6,0.09,0.61,0.22c0.01,0.1-0.04,0.18-0.15,0.26c-0.1,0.08-0.21,0.11-0.31,0.12c-0.54,0.02-0.82-0.12-0.83-0.44
	c-0.01-0.18,0.05-0.33,0.16-0.44c0.11-0.1,0.3-0.19,0.58-0.29c0.55-0.02,0.95,0.01,1.18,0.07c0.35,0.09,0.53,0.3,0.54,0.62
	l0.03,0.64c0.01,0.19,0.02,0.29,0.01,0.29C35.17,13.06,35.17,13.18,35.17,13.14z"/>
<path class="st2" d="M37.68,10.21l-0.04,2.72l-0.36,0.03c-0.07-0.11-0.25-0.26-0.56-0.44c0.02-0.19,0.03-0.3,0.03-0.33
	c0-0.2,0.01-0.53,0.01-0.99l0-1l-1-0.02l0.01-0.48l0.72,0.01l0.44,0l0.41-0.25c-0.52-0.44-1.13-0.66-1.82-0.67
	c-0.61-0.01-1.17,0.15-1.67,0.47l-0.33-0.21c1.05-0.5,1.89-0.74,2.5-0.73c0.42,0.01,0.84,0.11,1.26,0.3
	c0.28,0.13,0.62,0.33,1.02,0.6l-0.81,0.5l1.15,0.02l-0.01,0.48L37.68,10.21z"/>
<path class="st2" d="M45.36,11.44l-0.65,2.68l-0.49-0.12c-0.75-0.92-1.85-1.55-3.29-1.89l-0.02-0.77c0.42-0.04,1-0.05,1.75-0.03
	c0.84,0.02,1.43,0.03,1.77,0.01l0.02-0.1l-4.09-0.99l0.11-0.47l5.94,1.44l-0.11,0.47L45.36,11.44z M44.29,11.92
	c-0.78-0.02-1.42-0.02-1.93,0c0.71,0.41,1.26,0.81,1.64,1.2L44.29,11.92z"/>
<path class="st2" d="M47.48,12.33l-1.04,2.53l-0.32-0.13c-0.02-0.11-0.15-0.29-0.38-0.55l0.9-2.19l-0.87-0.36l0.19-0.46l0.88,0.36
	l0.22-0.52l0.33,0.12l0.12,0.68l1.03,0.43l-0.19,0.45L47.48,12.33z"/>
<path class="st2" d="M50.06,17.21c-0.15-0.23-0.37-0.52-0.65-0.88c-0.3-0.39-0.54-0.67-0.73-0.84c-0.19-0.18-0.52-0.44-0.98-0.78
	l0.63-0.62l0.63,0.63c0.19,0.19,0.48,0.61,0.88,1.26c0.38,0.63,0.63,1.09,0.75,1.4L50.06,17.21z M49.07,14.26
	c-0.24-0.13-0.43-0.29-0.59-0.48c-0.2-0.25-0.25-0.48-0.13-0.68c0.13-0.24,0.4-0.36,0.79-0.34c0.32,0.01,0.62,0.1,0.88,0.24
	c0.24,0.14,0.43,0.29,0.56,0.46c0.18,0.23,0.21,0.45,0.09,0.66c-0.14,0.25-0.39,0.37-0.75,0.36C49.63,14.49,49.34,14.41,49.07,14.26
	z M49.52,13.19c-0.04-0.02-0.1-0.03-0.16-0.03c-0.07,0-0.11,0.02-0.13,0.06c-0.06,0.1-0.05,0.25,0.02,0.45
	c0.07,0.2,0.15,0.33,0.26,0.38c0.03,0.02,0.09,0.03,0.19,0.05c0.1,0.02,0.15,0.02,0.16,0c0.03-0.06,0-0.22-0.09-0.47
	C49.66,13.37,49.58,13.23,49.52,13.19z"/>
<path class="st2" d="M51.59,16.71c0.12-0.11,0.28-0.15,0.47-0.12c0.17,0.03,0.32,0.1,0.46,0.22c0.14,0.11,0.24,0.25,0.29,0.4
	c0.07,0.18,0.06,0.34-0.05,0.47c-0.24,0.29-0.57,0.26-0.99-0.09c-0.3-0.25-0.51-0.56-0.64-0.94c-0.14-0.43-0.1-0.79,0.13-1.07
	c0.17-0.21,0.39-0.31,0.65-0.31c0.24,0,0.46,0.1,0.68,0.27c0.12,0.1,0.25,0.27,0.41,0.51c0.18,0.27,0.26,0.48,0.27,0.61
	c0.22,0.11,0.57,0.17,1.05,0.17c-0.06,0.21-0.01,0.47,0.15,0.77l0.44-0.53c-0.15-0.1-0.39-0.28-0.73-0.57l-2.58-2.14l0.33-0.4
	l4.65,3.86l-0.31,0.37l-0.63-0.52l-1.75,2.11l-0.33-0.32l-0.1-0.62c0.16-0.18,0.3-0.35,0.42-0.49c0.14-0.17,0.23-0.3,0.27-0.38
	c0.08-0.2,0.05-0.38-0.08-0.54c-0.28-0.09-0.57-0.18-0.87-0.27c-0.06-0.11-0.12-0.24-0.17-0.4c-0.05-0.14-0.09-0.24-0.13-0.31
	c-0.07-0.11-0.18-0.23-0.33-0.36c-0.17-0.14-0.33-0.22-0.49-0.26c-0.21-0.05-0.38,0.01-0.5,0.16c-0.09,0.11-0.13,0.22-0.13,0.35
	c0,0.13,0.05,0.23,0.16,0.32L51.59,16.71z"/>
<path class="st2" d="M57.18,19.49l-2.06,1.81l-0.23-0.26c0.03-0.11,0-0.33-0.09-0.66l1.79-1.57l-0.62-0.71l0.37-0.32l0.63,0.72
	l0.43-0.38l0.24,0.26l-0.2,0.66l0.74,0.84l-0.37,0.32L57.18,19.49z"/>
<path class="st2" d="M58.96,21.83c-0.17-0.24-0.54-0.37-1.1-0.41c-0.52-0.03-0.88,0.02-1.07,0.17c-0.19,0.14-0.25,0.28-0.16,0.42
	c0.03,0.02,0.14,0.04,0.34,0.06c0.16,0.02,0.31,0.12,0.44,0.31c0.09,0.12,0.13,0.26,0.13,0.43c0,0.17-0.05,0.3-0.17,0.38
	c-0.13,0.09-0.29,0.12-0.46,0.07c-0.19-0.05-0.37-0.19-0.53-0.41c-0.21-0.3-0.31-0.59-0.28-0.88c0.03-0.29,0.19-0.54,0.48-0.75
	c0.49-0.36,1.04-0.49,1.65-0.4L57.5,19.8l0.4-0.29l1.91,2.65l-0.4,0.29L58.96,21.83z"/>
<path class="st2" d="M60.23,23.91l-1.05,0.53l-0.03,0.15c0.7,0.47,1.32,1,1.88,1.57l0.02,0.97c-0.51-0.37-1-0.44-1.46-0.21
	c-0.24,0.12-0.45,0.33-0.64,0.63l-0.26-0.55c0.3-0.4,0.61-0.68,0.91-0.83c0.12-0.06,0.28-0.11,0.48-0.15
	c-0.72-0.68-1.3-1.08-1.74-1.21l-0.12-0.96l1.59-0.79l-0.5-1l0.44-0.22l2.71,5.43l-0.44,0.22L60.23,23.91z"/>
<path class="st2" d="M63.16,32.2l-2.6,0.63l-0.12-0.45l0.24-0.59c0.46-0.09,0.8-0.16,1.02-0.22c0.31-0.08,0.53-0.18,0.67-0.32
	c0.19-0.19,0.3-0.49,0.34-0.91c-0.05-0.1-0.08-0.16-0.11-0.2c-0.05-0.08-0.1-0.12-0.14-0.13c-0.07,0.02-0.12,0.1-0.15,0.23
	c-0.05,0.22-0.1,0.37-0.13,0.46c-0.07,0.16-0.15,0.25-0.26,0.27c-0.28,0.07-0.46-0.07-0.54-0.41c-0.03-0.14-0.04-0.28-0.02-0.42
	c0.08-0.13,0.17-0.31,0.28-0.52c-0.01-0.03-0.12-0.12-0.33-0.28c-0.19-0.14-0.31-0.3-0.36-0.49c-0.03-0.13-0.03-0.26,0-0.41
	c0.03-0.18,0.11-0.28,0.23-0.31c0.18-0.04,0.39,0.06,0.63,0.3c0.29,0.29,0.46,0.44,0.52,0.45l0.02-0.02l-0.17-0.72
	c0.08-0.08,0.19-0.29,0.35-0.63c0.13,0.54,0.17,0.96,0.11,1.27c-0.03,0.16-0.05,0.3-0.06,0.42c0.34,0.38,0.58,0.7,0.73,0.97
	c-0.26,0.42-0.44,0.78-0.55,1.09l0.65-0.16l0.45,1.83l-0.47,0.11L63.16,32.2z"/>
<path class="st3" d="M67.29,36.51c0,16.52-13.44,29.96-29.96,29.96c-16.52,0-29.96-13.44-29.96-29.96
	c0-16.52,13.44-29.96,29.96-29.96C53.85,6.55,67.29,19.99,67.29,36.51z M37.33,5.6C20.28,5.6,6.41,19.47,6.41,36.51
	c0,17.05,13.87,30.92,30.92,30.92c17.05,0,30.92-13.87,30.92-30.92C68.24,19.47,54.37,5.6,37.33,5.6z"/>
<path class="st4" d="M28.78,21.02c-0.22-0.12-1.06-0.29-1.3-0.02c-0.28,0.31,0.13,1,0.07,1.35c-0.47,0.15-0.9,0.83-1.13,1.24
	c-0.37,0.69-0.28,1.08,0.43,1.48c0.5,0.28,0.98,0.42,1.41,0.75c0.49,0.37,0.97,0.58,1.59,0.78c0.16,0.48,0.36,1.11,0.06,1.58
	c-0.43-0.02-1.09,0.01-1.48,0.19c-0.49,0.21-0.52,0.67-0.86,1.04c-0.36,0.39-0.76,0.43-1.03,0.97c-0.18,0.36-0.41,0.89-0.29,1.28
	c0.31,0.95,2.02,0.92,2.77,1.38c1.11,0.68,0.4,1.69-0.08,2.51c-0.54,0.93-0.36,1.58,0.14,2.56c0.44,0.87,0.98,1.59,1.17,2.55
	c0.38,1.89-0.47,4.83,1.28,6.09c0.42,0.31,1.02,0.55,1.33,0.02c0.24-0.41,0.31,0.14,0.64-0.21c0.46-0.5,0.18-0.46,0.32-0.13
	c0.27,0.63,0.37,0.26,1.09,0.08c0.72-0.18,0.92-0.28,1.47,0.19c0.48,0.4,0.83,0.79,1.27,0.13c0.33-0.51,0.21-1.28,0.54-1.78
	c0.38-0.58,0.71-0.16,1.27-0.03c0.12,0.03,0.11,0.04,0.21,0.12c0.82-0.03,0.5-0.73,1.02-1c0.66-0.35,1.04,0.65,1.39-0.19
	c0.42-1-0.35-2.85,1.54-2.38c1.16,0.29,1.69,1.55,1.92,2.62c0.15,0.7,0.16,1.41,0.33,2.1c0.17,0.68,0.41,1.3,0.43,2.02
	c0.04,0.92,0.24,1.56,0.46,2.41c0.9-0.05,0.36-1.21,0.88-1.58c0.61-0.43,1.56,0.21,2.23,0.1c0.03-0.56,0.1-1.23,0.01-1.78
	c-0.1-0.62-0.39-1.11-0.45-1.73c-0.11-1.17,0.18-2.42,0-3.58c-0.17-1.14-0.83-2.13-1.11-3.24c-0.26-1.08-0.33-2.21-0.77-3.23
	c-0.25-0.6-0.52-0.69-1.19-0.63c-0.39,1.03-0.27,2-0.86,2.98c-0.56,0.95-1.27,1.94-2.35,0.64c-0.41-0.5-0.61-1.16-0.94-1.71
	c-0.26-0.44-0.57-1.05-0.6-1.58c-0.07-1.22,0.87-1.99,1.92-2.3c0.93-0.28,0.98-0.56,1.68-1.15c0.47-0.4,1.14-0.51,1.67-0.9
	c0.88-0.64,0.18-1.22,0.54-2.02c0.26-0.55,1.48-0.56,1.41-1.19c-0.44-0.25-0.67-0.67-1.14-0.91c-0.46-0.24-0.78-0.44-1.33-0.53
	c-0.53-0.09-0.84-0.09-1.36,0.08c-0.33,0.11-0.89,0.44-1.21,0.45c-1.02,0.04-1.43-1.56-2.45-0.47c-0.3,0.32-0.35,0.66-0.75,0.93
	c-0.43,0.28-0.9,0.34-1.41,0.37c-0.54,0.04-0.99,0.17-1.47,0.25c-0.55,0.09-1.03-0.12-1.54-0.31c-1.29-0.49-1.15-1.03-1.15-2.39
	c0-0.8,0.02-2.68-1.02-2.74c-0.74-0.04-0.46,0.5-0.88,0.79c-0.39,0.27-1.05-0.12-1.22-0.35c-0.46-0.61-0.23-1.71-1.29-1.78
	c-1-0.07-1.24,1.05-1.92-0.19"/>
<polygon class="st0" points="12.55,40.18 13.2,42.16 15.28,42.16 13.59,43.39 14.24,45.36 12.55,44.14 10.87,45.36 11.51,43.39 
	9.83,42.16 11.91,42.16 "/>
<polygon class="st0" points="16.87,49.49 17.52,51.47 19.6,51.47 17.92,52.7 18.56,54.68 16.87,53.45 15.19,54.68 15.83,52.7 
	14.15,51.47 16.23,51.47 "/>
<polygon class="st0" points="57.78,49.4 58.42,51.38 60.51,51.38 58.82,52.6 59.47,54.58 57.78,53.36 56.1,54.58 56.74,52.6 
	55.05,51.38 57.14,51.38 "/>
<polygon class="st0" points="62.49,39.89 63.13,41.87 65.21,41.87 63.53,43.1 64.17,45.08 62.49,43.85 60.8,45.08 61.44,43.1 
	59.76,41.87 61.84,41.87 "/>
</svg>
