<svg width="44" height="40" viewBox="0 0 44 40" fill="none" xmlns="http://www.w3.org/2000/svg">
<g clip-path="url(#clip0_27_1759)">
<path d="M36.1646 4.38819C36.3058 4.56051 36.302 4.67156 36.1722 4.84004C35.8783 5.21147 35.6188 5.60588 35.3173 5.96966C35.1151 6.2109 35.1112 6.40236 35.2906 6.66275C35.8097 7.40179 36.1493 8.22124 36.3058 9.11345C36.3592 9.4083 36.5081 9.55381 36.821 9.58061C37.2904 9.62273 37.7522 9.71463 38.2178 9.77973C38.359 9.79888 38.5079 9.80653 38.5041 10.0057C38.5041 10.3924 38.5041 10.7753 38.4964 11.1621C38.4964 11.3612 38.3361 11.3535 38.1987 11.3727C37.7331 11.4378 37.2675 11.545 36.8019 11.5641C36.4508 11.5756 36.363 11.7479 36.3096 12.0351C36.1798 12.7818 35.9432 13.5094 35.5043 14.1221C35.1189 14.6543 35.1494 15.0258 35.5654 15.5236C36.2027 16.2894 36.1531 16.2971 36.9546 15.7342C37.2599 15.5197 37.1798 15.3895 37.0118 15.1674C36.8897 15.0028 36.6493 14.8688 36.8096 14.5816C37.1034 14.0646 37.1721 13.383 37.5232 12.9695C37.9049 12.5214 38.672 12.7321 39.2597 12.5827C39.3437 12.5597 39.4314 12.5483 39.5192 12.5521C39.8016 12.5559 39.8627 12.3989 39.8627 12.1462C39.8551 11.0932 39.8513 10.0439 39.8627 8.99091C39.8627 8.71904 39.7635 8.62331 39.5116 8.59267C38.9582 8.52375 38.4086 8.42036 37.8553 8.35526C37.6225 8.32846 37.5003 8.26719 37.4202 8.01063C37.2752 7.5473 37.0653 7.10311 36.8554 6.66275C36.7485 6.44448 36.7523 6.29131 36.9088 6.09602C37.2484 5.67481 37.5499 5.21913 37.8934 4.80175C38.0881 4.56817 38.0995 4.415 37.8667 4.18907C37.1111 3.46152 36.3707 2.71865 35.6417 1.96047C35.4509 1.76135 35.3288 1.78433 35.138 1.94132C34.7296 2.27064 34.2831 2.55017 33.89 2.8948C33.619 3.13221 33.4053 3.12838 33.1038 2.9599C32.7565 2.76461 32.3787 2.59995 31.997 2.50039C31.665 2.41232 31.5581 2.23234 31.52 1.92218C31.4589 1.4014 31.3521 0.888289 31.2986 0.367515C31.2681 0.0688366 31.1383 -8.93262e-05 30.8597 0.00373989C29.8827 0.0190568 28.9019 0.022886 27.9249 0.00373989C27.5662 -0.00391854 27.3448 0.0343736 27.341 0.486221C27.341 0.918923 27.2189 1.34779 27.1692 1.78433C27.1273 2.15959 27.0242 2.42763 26.593 2.53102C26.2075 2.62292 25.8373 2.79907 25.4862 2.99053C25.2343 3.12838 25.0664 3.13604 24.8412 2.94458C24.4825 2.63824 24.0627 2.40083 23.7192 2.083C23.3108 1.70391 23.036 1.79198 22.788 2.23234C22.101 2.90629 21.4217 3.58406 20.7271 4.24651C20.5401 4.42649 20.5744 4.55668 20.7156 4.73282C20.9752 5.06214 21.2003 5.41825 21.4789 5.73225C21.8377 6.13049 22.0132 6.49809 21.6354 6.99972C21.4637 7.22564 21.3988 7.53964 21.3034 7.81917C20.9866 8.77265 20.9942 8.7535 21.9407 8.97559C22.2957 9.05984 22.3911 8.94496 22.4674 8.63097C22.5895 8.10253 22.7422 7.55495 23.0857 7.1414C23.6161 6.49809 23.4635 6.01944 22.9673 5.4374C22.2384 4.57582 22.288 4.55285 23.0971 3.78318C23.3108 3.5764 23.4673 3.59172 23.6734 3.75254C24.0283 4.03208 24.3909 4.30395 24.7496 4.57965C24.9175 4.70602 25.0855 4.8477 25.2801 4.62178C26.1464 4.13164 27.0357 3.69893 28.0241 3.51896C28.2378 3.48067 28.2989 3.36962 28.3218 3.16667C28.3752 2.68036 28.4783 2.19788 28.5203 1.71157C28.5432 1.43587 28.6538 1.37077 28.9095 1.36311C30.0697 1.32099 30.0697 1.31333 30.2338 2.50039C30.2529 2.63824 30.314 2.77992 30.3025 2.91394C30.2606 3.3926 30.5201 3.52662 30.9399 3.6032C31.5925 3.72574 32.2069 3.9823 32.7909 4.30778C33.3608 4.62943 33.8951 4.59114 34.3938 4.1929C35.3364 3.44238 35.3898 3.45386 36.1608 4.38819H36.1646Z" fill="#058880"/>
<path d="M30.0888 24.0437C31.9626 23.9978 33.2831 22.6882 33.2755 20.8732C33.2679 19.1079 31.913 17.7945 30.0659 17.783C28.4248 17.7715 26.7799 17.7945 25.1389 17.7677C24.7343 17.76 24.6504 17.8864 24.6542 18.2693C24.6694 21.6007 24.6618 24.9321 24.6618 28.2597C24.6618 29.0256 24.6618 28.9988 25.448 29.0332C25.9022 29.0524 26.0319 28.9298 26.0281 28.4588C26.0014 25.5142 26.0205 22.5695 26.0052 19.6248C26.0052 19.2419 26.093 19.1079 26.4937 19.1194C27.6806 19.1462 28.8713 19.1194 30.0582 19.1309C31.1765 19.1423 31.9207 19.8508 31.9321 20.8846C31.9436 21.93 31.1688 22.692 30.0544 22.7112C29.4247 22.7227 28.795 22.7112 28.1691 22.7112C27.2112 22.7112 27.0891 22.8605 27.2532 23.8178C27.2761 23.9595 27.3142 24.0667 27.4669 24.0514C27.8104 24.0131 27.9592 24.262 28.1309 24.4803C29.2453 25.8741 30.3559 27.2679 31.478 28.658C31.6039 28.8149 31.6993 29.0217 31.9588 29.0179C32.4397 29.0102 32.9206 29.0179 33.4969 29.0179C32.1458 27.3292 30.8635 25.7324 29.5774 24.1242C29.772 23.9901 29.9361 24.0437 30.085 24.0399L30.0888 24.0437Z" fill="#058880"/>
<path d="M12.0751 16.0865C12.0599 16.0405 12.0408 15.9984 12.0217 15.9563C12.0446 15.9678 12.0599 16.0444 12.0751 16.0865C12.1515 16.0444 12.2316 16.0099 12.3041 15.964C15.426 14.1834 18.502 14.2408 21.5285 16.1937C21.7994 16.3699 21.9635 16.412 22.1315 16.1018C22.1963 15.9793 22.2803 15.8606 22.3833 15.7687C22.7345 15.4508 22.6085 15.2594 22.2612 15.0296C20.2805 13.7162 18.1013 13.1686 15.7504 13.3984C14.1169 13.5592 12.5904 14.0723 11.2508 15.0679C11.1745 15.11 11.0943 15.1445 11.0256 15.1943C7.91905 17.5761 6.52223 20.716 7.04509 24.6103C7.98775 31.6331 15.9908 35.336 21.9712 31.5489C22.7192 31.074 22.7001 31.0894 22.1887 30.358C21.9483 30.0133 21.7803 30.0402 21.4636 30.2546C19.4103 31.6369 17.1625 32.0275 14.7619 31.4685C10.6249 30.5035 7.78547 26.4177 8.32359 22.2056C8.65562 19.6094 9.95321 17.5914 12.0751 16.0903V16.0865Z" fill="#058880"/>
<path d="M40.1222 17.7981C38.3399 17.7713 36.5576 17.7866 34.7792 17.7751C34.5311 17.7751 34.3975 17.8134 34.4052 18.1121C34.4281 19.1996 34.4242 20.2833 34.4281 21.3708C34.4204 23.4462 34.409 25.5255 34.4128 27.6009C34.4128 28.0528 34.3555 28.5046 34.4509 28.9565C34.8555 29.0675 35.2638 29.0675 35.6684 28.9565L35.6837 28.9488C35.8249 28.7803 35.7524 28.5774 35.7524 28.3936C35.7562 25.468 35.76 22.5387 35.7485 19.6132C35.7485 19.2685 35.8096 19.1154 36.2027 19.123C37.4087 19.146 38.6147 19.1307 39.8169 19.1307C40.1336 19.1307 40.4389 19.169 40.729 19.326C41.4465 19.7166 41.8167 20.5169 41.6373 21.3287C41.4656 22.106 40.7557 22.6727 39.8741 22.7033C39.21 22.7263 38.546 22.7072 37.8819 22.7033C36.9126 22.7033 36.9202 22.7033 36.9622 23.6836C36.9736 23.9364 37.027 24.0742 37.3133 24.0666C38.3246 24.0436 39.3398 24.1163 40.3512 24.0091C41.9388 23.8406 43.0837 22.3932 43.0112 20.6624C42.9502 19.1728 41.6068 17.8173 40.1184 17.7943L40.1222 17.7981Z" fill="#058880"/>
<path d="M29.0926 31.1812C28.4858 30.3732 28.4934 30.3847 27.6919 31.0089C27.4515 31.1965 27.4935 31.3152 27.6461 31.5105C27.9515 31.8934 28.2301 32.2955 28.5392 32.6784C28.7071 32.8852 28.7491 33.0269 28.5239 33.2375C27.9133 33.8157 27.3256 34.4169 26.7416 35.0181C26.5623 35.2019 26.444 35.2249 26.2264 35.0564C25.4708 34.4628 24.6884 33.9038 23.9251 33.3179C23.7496 33.1839 23.6236 33.1379 23.4213 33.2758C22.2879 34.0531 21.0361 34.5777 19.7232 34.9568C18.8454 35.1215 18.8416 35.1215 18.7119 35.983C18.5936 36.7604 18.4752 37.5377 18.3798 38.3189C18.3493 38.5678 18.2615 38.6405 18.0211 38.6367C17.1662 38.6252 16.3113 38.6252 15.4564 38.6367C15.2236 38.6367 15.1244 38.5716 15.0939 38.3227C14.9794 37.4037 14.8115 36.4923 14.7084 35.5695C14.6703 35.2325 14.5481 35.0985 14.2199 35.0334C12.7697 34.7462 11.4187 34.1833 10.1898 33.3562C9.87681 33.1456 9.69363 33.1877 9.42648 33.3983C8.71662 33.965 7.97623 34.4935 7.25874 35.0487C7.06029 35.2019 6.93053 35.2172 6.74352 35.0219C6.16342 34.4131 5.57188 33.8195 4.96506 33.2375C4.75516 33.0384 4.75516 32.9082 4.93071 32.6823C5.51081 31.9394 6.06038 31.1697 6.64048 30.423C6.8084 30.2086 6.81222 30.0592 6.65956 29.8333C5.80468 28.5544 5.21313 27.1644 4.9269 25.648C4.87728 25.3876 4.77424 25.2689 4.49182 25.2344C3.57588 25.1234 2.66375 24.9511 1.74781 24.8515C1.38906 24.8132 1.32418 24.6677 1.33563 24.3575C1.35471 23.764 1.33945 23.1667 1.33945 22.5693C1.33945 21.9132 1.67148 21.5367 2.33554 21.4397C2.43476 21.4244 2.53399 21.3822 2.63322 21.3554C3.28965 21.275 3.94607 21.1869 4.6025 21.1142C4.86202 21.0836 4.8811 20.8883 4.91926 20.7045C5.22076 19.2149 5.78941 17.8326 6.63666 16.5727C6.81985 16.3009 6.78169 16.1286 6.5985 15.895C6.0413 15.1789 5.51845 14.436 4.95361 13.7276C4.74371 13.4634 4.77042 13.3141 5.00323 13.0882C5.51845 12.5942 6.00313 12.0696 6.50309 11.5565C6.84275 11.1123 7.1557 11.1965 7.55261 11.5335C8.17468 12.0658 8.86546 12.5214 9.5028 13.0345C9.73561 13.2222 9.89208 13.2107 10.1325 13.0499C11.3156 12.2534 12.6056 11.6867 13.9986 11.388C14.51 11.2769 14.7275 11.0357 14.6932 10.5341C14.9145 9.74142 14.926 8.91431 15.0824 8.11017C15.1206 7.90723 15.1359 7.73874 15.4106 7.74257C16.2655 7.7464 17.1204 7.74257 17.9753 7.72725C18.2692 7.72342 18.3455 7.85745 18.3798 8.13315C18.4943 9.05216 18.6546 9.96734 18.7691 10.8864C18.8035 11.1621 18.8989 11.2808 19.1622 11.3305C20.685 11.6331 22.0932 12.2189 23.3832 13.0843C23.5931 13.2222 23.7267 13.2145 23.9213 13.0614C24.6655 12.4831 25.425 11.9241 26.1768 11.3574C26.3486 11.2272 26.4821 11.1008 26.6997 11.3305C27.3027 11.9662 27.9247 12.5789 28.5506 13.1915C28.7071 13.3447 28.7224 13.4519 28.5812 13.6281C28.2987 13.9842 28.0316 14.3518 27.7645 14.7194C27.1729 15.5274 27.1844 15.5197 27.9934 16.1017C28.2224 16.2664 28.3255 16.2396 28.4819 16.0252C29.0888 15.1904 29.7032 14.3633 30.3405 13.5515C30.5428 13.2949 30.4321 13.1686 30.2566 12.9963C29.1193 11.859 27.982 10.7217 26.8561 9.57294C26.6615 9.37382 26.547 9.39679 26.3409 9.55379C25.5395 10.1741 24.7113 10.7562 23.9175 11.388C23.6618 11.5909 23.4824 11.5718 23.2267 11.4224C22.3489 10.917 21.4139 10.5226 20.4369 10.2622C20.1392 10.1818 20.0133 10.0554 19.9751 9.74908C19.8415 8.742 19.6774 7.74257 19.54 6.73932C19.5095 6.51339 19.4599 6.40234 19.2004 6.40234C17.5593 6.41383 15.9182 6.41 14.2772 6.40234C14.0787 6.40234 13.9642 6.43298 13.9375 6.67422C13.8192 7.64684 13.678 8.6118 13.5444 9.58059C13.5177 10.0822 13.1933 10.2239 12.7582 10.3426C11.8652 10.5838 11.0179 10.9553 10.2203 11.4301C9.94169 11.5948 9.76614 11.5565 9.52952 11.3727C8.73188 10.7523 7.91517 10.155 7.11372 9.53847C6.93816 9.40445 6.81603 9.34318 6.63666 9.53847C6.26265 9.95203 5.86574 10.3426 5.48028 10.7447C4.72463 11.4914 3.98042 12.2496 3.20568 12.9771C2.94235 13.2222 2.9996 13.3753 3.1866 13.6166C3.79342 14.4016 4.37351 15.2095 4.98033 15.9984C5.1368 16.2051 5.18642 16.3583 5.04139 16.5995C4.49182 17.5339 4.08728 18.5371 3.80868 19.5863C3.74762 19.8161 3.64076 19.8888 3.42704 19.9195C2.88129 19.9999 2.33554 20.0995 1.78979 20.1914C1.30892 20.2526 0.831862 20.3254 0.347174 20.3637C0.0533087 20.3866 -0.0153872 20.513 -0.0115708 20.7925C-0.000121466 22.3893 -0.000121466 23.9823 -0.0115708 25.5791C-0.0115708 25.8509 0.0418593 25.9735 0.347174 26.0079C1.31655 26.1228 2.28211 26.2875 3.24767 26.4138C3.57588 26.456 3.76288 26.567 3.85066 26.9231C4.0911 27.8957 4.48037 28.8147 4.98414 29.6763C5.17115 29.9941 5.12535 30.1933 4.91545 30.4613C4.31245 31.231 3.7438 32.0313 3.14081 32.8048C2.96525 33.0307 2.96907 33.1571 3.17515 33.36C4.3239 34.4896 5.4612 35.6308 6.58705 36.7833C6.79313 36.994 6.92289 36.9825 7.14043 36.814C7.92662 36.2013 8.7357 35.6231 9.52189 35.0066C9.76232 34.8151 9.94169 34.7845 10.2165 34.9453C11.0637 35.4393 11.9568 35.849 12.9071 36.0788C13.346 36.186 13.4833 36.4081 13.5291 36.8178C13.6398 37.756 13.8039 38.6865 13.9146 39.6246C13.949 39.9233 14.0749 39.9846 14.3459 39.9846C15.9373 39.9731 17.525 39.9731 19.1164 39.9846C19.4026 39.9846 19.5057 39.9003 19.5438 39.6131C19.6583 38.6941 19.8034 37.7751 19.9331 36.8599C19.9827 36.5153 20.0018 36.1554 20.456 36.0903C21.4215 35.8911 22.3069 35.4776 23.1542 34.9913C23.5053 34.7922 23.7343 34.8304 24.032 35.0679C24.7838 35.6652 25.5662 36.2243 26.3257 36.8178C26.5508 36.994 26.6806 36.9901 26.8829 36.7795C28.0087 35.6269 29.1422 34.4858 30.2909 33.3562C30.5047 33.1456 30.4856 33.0116 30.3176 32.7971C29.894 32.261 29.4933 31.7135 29.0849 31.1659L29.0926 31.1812Z" fill="#058880"/>
<path d="M22.8911 18.0662C22.872 17.8249 22.7804 17.779 22.5743 17.779C20.2692 17.779 17.9641 17.779 15.6589 17.7751C15.407 17.7751 15.3269 17.8594 15.3269 18.1083C15.3422 19.4026 15.346 20.7007 15.3536 21.9949C15.3498 24.0091 15.3422 26.0271 15.3384 28.0413C15.3384 28.6616 15.6488 28.9718 16.2696 28.9718C18.3304 28.9718 20.3913 28.9641 22.4522 28.9794C22.788 28.9794 22.9445 28.9029 22.8911 28.5467C22.872 28.428 22.8682 28.2978 22.8911 28.1791C22.9789 27.6928 22.7575 27.6086 22.3148 27.6162C20.605 27.6469 18.8915 27.6277 17.1779 27.643C16.8115 27.643 16.6627 27.5626 16.6741 27.1491C16.7046 26.1688 16.6741 25.1885 16.6665 24.2044C16.6741 23.0671 16.6665 21.926 16.6894 20.7887C16.6894 20.6241 16.6703 20.4441 16.6512 20.2641C16.6512 20.199 16.6512 20.1378 16.655 20.0727C16.6627 19.9042 16.6512 19.7549 16.6245 19.6132C16.6436 19.46 16.6894 19.3222 16.7924 19.2264C17.1244 18.9124 17.8229 19.1383 18.361 19.1345C19.5479 19.123 20.7348 19.1307 21.9217 19.1269C22.975 19.1269 22.9636 19.1269 22.8873 18.0623L22.8911 18.0662Z" fill="#058880"/>
<path d="M31.1229 12.3684C31.1916 12.4221 31.2527 12.4872 31.3061 12.5561C31.4626 12.759 31.5809 12.6863 31.7107 12.5216C32.161 11.9511 32.3862 11.3039 32.4129 10.5113C32.3518 9.37017 31.848 8.41669 30.7604 7.84997C29.7223 7.30622 28.6766 7.35983 27.6767 7.98782C27.1119 8.34011 27.1462 8.32479 27.5813 8.83408C27.9133 9.22083 28.169 9.30124 28.6461 9.01788C29.2643 8.64262 30.0467 8.84557 30.5581 9.36634C31.0619 9.87946 31.2794 10.6683 30.8825 11.2388C30.497 11.7979 30.7375 12.0583 31.1191 12.3723L31.1229 12.3684Z" fill="#058880"/>
<path d="M20.1622 22.7111C19.6394 22.7265 19.1127 22.7533 18.5937 22.7035C18.0441 22.6499 17.8762 22.8337 17.9143 23.3851C17.9678 24.1433 17.8457 24.0514 18.5937 24.059C18.8036 24.059 19.0135 24.059 19.2234 24.059C19.3264 24.059 19.4333 24.059 19.5363 24.059C20.5591 24.059 20.5477 24.059 20.4981 23.0404C20.4866 22.7916 20.4103 22.7035 20.1622 22.7111Z" fill="#058880"/>
</g>
<defs>
<clipPath id="clip0_27_1759">
<rect width="43.0189" height="40" fill="white"/>
</clipPath>
</defs>
</svg>
