<?xml version="1.0" encoding="utf-8"?>
<!-- Generator: Adobe Illustrator 25.0.0, SVG Export Plug-In . SVG Version: 6.00 Build 0)  -->
<svg version="1.1" id="Layer_1" xmlns="http://www.w3.org/2000/svg" xmlns:xlink="http://www.w3.org/1999/xlink" x="0px" y="0px"
	 viewBox="0 0 218 57" style="enable-background:new 0 0 218 57;" xml:space="preserve">
<style type="text/css">
	.st0{fill:#EB2227;}
	.st1{opacity:0.5;}
	.st2{fill:#2E3191;}
	.st3{fill:#EC1C24;}
</style>
<g>
	<g>
		<g>
			<path class="st0" d="M36.7,16c1.6,3.3,0.3,7.3-3,9c-3.2,1.6-7.2,0.3-8.8-3c-1.6-3.3-0.3-7.3,3-9C31.1,11.4,35.1,12.7,36.7,16z"/>
		</g>
		<g class="st1">
			<path class="st0" d="M42,13.1c1.2,2.4,0.2,5.2-2.1,6.4c-2.3,1.2-5.1,0.2-6.3-2.1c-1.2-2.4-0.2-5.3,2.1-6.4
				C38.1,9.8,40.9,10.7,42,13.1z"/>
		</g>
		<g class="st1">
			<path class="st0" d="M42.4,10c0.8,1.7,0.1,3.8-1.5,4.7c-1.7,0.8-3.7,0.1-4.6-1.6c-0.8-1.7-0.2-3.8,1.5-4.7
				C39.5,7.6,41.5,8.3,42.4,10z"/>
		</g>
		<g class="st1">
			<path class="st0" d="M46,5.4c0.9,1.8,0.2,4-1.6,4.8c-1.8,0.9-3.9,0.2-4.7-1.6c-0.9-1.8-0.2-4,1.6-4.8C43,2.9,45.1,3.6,46,5.4z"/>
		</g>
		<g class="st1">
			<path class="st0" d="M50.9,4.7c0.8,1.6,0.1,3.7-1.5,4.5C47.8,10,45.8,9.3,45,7.7C44.2,6,44.9,4,46.5,3.2
				C48.1,2.4,50.1,3,50.9,4.7z"/>
		</g>
		<g class="st1">
			<path class="st0" d="M58,7.5c0.5,1.1,0.1,2.4-1,2.9c-1,0.5-2.3,0.1-2.8-1c-0.5-1.1-0.1-2.4,1-2.9C56.2,6,57.5,6.4,58,7.5z"/>
		</g>
		<g class="st1">
			<path class="st0" d="M62.7,6.9c0.3,0.7,0.1,1.5-0.6,1.8c-0.7,0.3-1.5,0.1-1.8-0.6c-0.3-0.7-0.1-1.5,0.6-1.8
				C61.6,5.9,62.4,6.2,62.7,6.9z"/>
		</g>
		<g class="st1">
			<path class="st0" d="M66.5,1.8c0.4,0.8,0.1,1.7-0.7,2.1C65,4.3,64.1,4,63.7,3.2c-0.4-0.8-0.1-1.7,0.7-2.1
				C65.1,0.7,66.1,1.1,66.5,1.8z"/>
		</g>
	</g>
	<g>
		<path class="st2" d="M27.4,49.4H8.2V17.4H1.4v35.4C1.4,54.6,3,56,4.8,56h22.5V49.4z"/>
	</g>
	<g>
		<path class="st2" d="M4.8,5.4C3,5.4,1.4,6.9,1.4,8.7v3.4l24.2,0c-1.3-2.2-2.9-4.5-4.9-6.6H4.8z"/>
	</g>
	<g>
		<path class="st2" d="M46.6,28.2v21.2H33.8V56H50c1.9,0,3.4-1.5,3.4-3.3V16.4c-1.7,3.6-3.6,7-5.7,10.3C47.3,27.2,47,27.7,46.6,28.2
			z"/>
	</g>
</g>
<g>
	<g>
		<path class="st2" d="M171.2,18c-0.1-0.4-0.4-0.5-0.6-0.5h-3.9c-0.3,0-0.6,0.2-0.6,0.5l0,0l-0.2,13.1c-0.1,2.3-0.5,4.5-1.4,6.2
			c-0.1,0.2-0.2,0.5-0.3,0.7c-0.6,1-1.2,1.4-1.7,1.4c-0.4,0-1.2,0-1.8-1.7c-0.5-1.4-0.7-3.7-0.7-6.9c0-2.7,0.4-5.2,0.9-7
			c0.5-1.9,1.4-3.6,2.6-5.2c0.2-0.1,0.2-0.4,0.1-0.6c0-0.2-0.2-0.4-0.5-0.4h-5.8c-0.2,0-0.6,0.2-0.6,0.5c0,0,0,0,0,0h0l0,0
			c0,0.4,0.1,0.6,0.4,0.7l2.8,1.2c-1,1.4-1.8,2.8-2.3,4.5c-0.6,1.7-0.9,3.8-0.9,6.1c0,0,0,0,0,0c0,0,0,0,0,0c0,3.1,0.5,5.6,1.5,7.5
			c0,0.1,0.1,0.1,0.1,0.2c0,0,0,0,0,0.1c1.1,2.2,2.5,3.3,4.2,3.3c1,0,2-0.5,2.7-1.4c0.1-0.2,0.4-0.5,0.5-0.7c0,1.7-0.1,3.2-0.2,4.4
			c-0.1,1-0.3,1.8-0.5,2.4c-0.5,1.6-1.4,1.7-2,1.7c-0.9,0-1.6-0.5-2.2-1.2c-0.6-0.9-1.5-2.6-2.2-5.1c-0.1-0.2-0.4-0.4-0.7-0.4
			c-0.2,0-0.5,0.4-0.5,0.6v0v7.5v0l0,0c0,0.2,0.2,0.5,0.5,0.6h0.1c0.2,0,0.4-0.1,0.6-0.2l0.7-1.5c0.4,0.5,0.7,0.9,1.2,1.1
			c0.7,0.5,1.6,0.7,2.5,0.7c2,0,3.5-1.1,4.4-3.1c0.9-1.9,1.4-4.7,1.4-8.3V20.2l2.3-1.5C171.2,18.5,171.3,18.3,171.2,18z"/>
	</g>
	<g>
		<g>
			<path class="st3" d="M104.4,5.5c-1.8,0.6-3.1,2-3.7,4.2c-0.5,1.6-0.6,3.1-0.5,4.7c0.1,1.2,0.6,2.3,1.5,3c0.6,0.6,1.5,0.9,2.5,0.9
				c0.2,0,0.5,0,0.9-0.1c1.2-0.1,2.3-0.9,3.2-2.1c1.4-2,1.6-4.1,1.6-5.8c0-2.3-1-4-3.1-4.7"/>
		</g>
		<g>
			<path class="st3" d="M107.3,22.2c-0.2-1.2-1.5-2.2-3.1-2.5c-1.5-0.2-3.1,0.6-3.6,2c-0.5,1.2-0.4,2.2,0.2,3.1
				c0.1,0.2,0.2,0.4,0.2,0.6c0.1,3.3,0,6.7-0.2,9.8c-0.5,4.5-1.4,10.3-4.4,15.5c-0.1,0.1-0.1,0.4,0,0.6c0.1,0.1,0.2,0.2,0.5,0.2
				c0.5,0,0.7-0.2,1-0.4c1.5-1.4,2.8-3,3.9-4.7c3.6-5.7,5.2-12.4,4.9-20.2c0-0.1,0-0.4,0-0.5c0-0.6-0.1-1.2,0.2-1.9
				C107.3,23.4,107.5,22.8,107.3,22.2z"/>
		</g>
	</g>
	<g>
		<path class="st2" d="M77.4,15.3c-1.5-1.9-3.5-2.7-5.9-2.7h-4.7c-0.2,0-0.5,0.1-0.6,0.4c-0.1,0.2,0,0.6,0.2,0.7l1.8,1.4v27.7
			l-2.3,1.5c-0.2,0.2-0.4,0.5-0.2,0.7c0.1,0.4,0.4,0.5,0.6,0.5h3.3c0.4,0,0.6-0.2,0.7-0.7l0.7-12.1c2.3-0.1,4.3-1.1,5.9-3
			c1.7-1.9,2.6-4.3,2.6-7.3C79.6,19.5,78.9,17,77.4,15.3z M72.2,14.6c1.4,0.1,2.2,0.6,3,1.6c0.7,1.1,1.1,3,1.1,5.4
			c0,2.8-0.6,5.2-1.6,6.8c-1,1.5-2.1,2.2-3.6,2.3L72.2,14.6z"/>
	</g>
	<g>
		<path class="st2" d="M93.8,21.6c-0.4-0.1-0.6,0.1-0.7,0.4l-0.4,1.2c-0.2-0.4-0.4-0.6-0.6-0.9c-0.5-0.6-1.2-1-2.1-1
			c-0.7,0-1.8,0.2-2.7,1.7c-0.1,0.2-0.2,0.5-0.4,0.7l-0.1-1.6c0-0.4-0.2-0.6-0.6-0.6h-3.7c-0.2,0-0.5,0.2-0.6,0.5
			c-0.1,0.4,0,0.6,0.2,0.7l2.3,1.4v18.5l-2.2,1.5C82,44.5,81.8,44.7,82,45c0.1,0.4,0.4,0.5,0.6,0.5h4.9c0.1,0,0.4-0.1,0.5,0
			c0.1-0.1,0.1-0.4,0.1-0.5c-0.2-1.9-0.5-3.7-0.6-5.6c-0.1-1.9-0.2-3.8-0.2-5.7c0-3,0.4-5.3,0.9-7c0.5-1.5,1-2.2,1.6-2.2
			c0.5,0,1.1,0.7,1.6,2c0.6,1.5,1.2,3.8,1.7,6.9c0,0.2,0.2,0.5,0.6,0.5c0.4,0,0.6-0.2,0.6-0.6v-11C94.3,21.9,94,21.6,93.8,21.6z"/>
	</g>
	<g>
		<path class="st2" d="M126.7,44l-2.5-1.6V14.9l2.5-1.5c0.2-0.2,0.4-0.5,0.2-0.7c-0.1-0.2-0.4-0.5-0.6-0.5H121
			c-0.2,0-0.4,0.1-0.5,0.2c-0.1,0.1-0.1,0.4-0.1,0.5l0.5,9.9c-0.1-0.2-0.2-0.4-0.4-0.5c-0.7-0.9-1.6-1.4-2.6-1.4
			c-1.8,0-3.3,1.1-4.4,3.6c-1.1,2.2-1.6,5.2-1.6,8.7c0,3.7,0.5,6.7,1.5,8.8c1.1,2.3,2.6,3.5,4.4,3.5c1.2,0,2.2-0.6,3.2-1.9
			c0.2-0.4,0.5-0.9,0.7-1.5l0.1,2.5c0,0.4,0.2,0.6,0.6,0.6h3.8c0.2,0,0.5-0.2,0.6-0.5C127,44.4,126.9,44.1,126.7,44z M118,43.1
			c-0.5,0-1.2-0.2-1.7-1.9c-0.4-1.5-0.6-4.2-0.6-8.3c0-3.2,0.2-5.8,0.7-7.5c0.4-1.5,1-2.2,1.7-2.2c0.9,0,1.6,1.4,2.1,2.5
			c0.7,1.9,1.1,4.2,1.1,6.9c0,3.2-0.4,5.8-1.1,7.8C119.8,41.6,119,43.1,118,43.1z"/>
	</g>
	<g>
		<path class="st2" d="M139.1,24.1c-1.1-2.1-2.5-3.2-4.1-3.2c-1.7,0-3.2,1.2-4.3,3.7c-1.1,2.3-1.6,5.3-1.6,8.8
			c0,3.6,0.6,6.6,1.6,8.7c1.1,2.3,2.7,3.5,4.6,3.5c0.9,0,1.6-0.4,2.2-1.2c0.4-0.4,0.6-0.7,1-1.4l0.4,1.5c0,0.4,0.2,0.5,0.6,0.5
			c0.2,0,0.5-0.2,0.5-0.6v-8.8c0-0.4-0.1-0.6-0.5-0.6c-0.2,0-0.5,0.2-0.6,0.5c-0.6,2.8-1.2,4.8-1.8,6.1c-0.4,0.7-0.9,1.6-1.6,1.6
			c-0.6,0-1.5-0.1-2.1-2c-0.5-1.5-0.7-4.1-0.7-7.7h7.5c0.4,0,0.6-0.2,0.6-0.6v-1.4C140.7,28.5,140.2,26.1,139.1,24.1z M135,23.2
			c0.6,0,1.1,0.6,1.5,1.7c0.5,1.4,0.7,3.2,0.7,5.6v0.7h-4.7c0.1-2.7,0.5-4.7,0.9-6.1C133.8,23.8,134.4,23.2,135,23.2z"/>
	</g>
	<g>
		<path class="st2" d="M153.6,35.5c-0.5-1.1-1.2-2-2.2-2.7c0-0.1-0.1-0.1-0.2-0.2c-2.8-2.2-4.3-4.3-4.3-6.6c0-1,0.1-1.7,0.5-2.2
			c0.4-0.4,0.9-0.6,1.5-0.6c0.2,0,1,0,1.7,1.5c0.6,1.2,1.2,3.1,1.6,5.6c0,0.2,0.2,0.5,0.6,0.5s0.6-0.2,0.6-0.6v-8.5
			c0-0.4-0.2-0.6-0.5-0.6c-0.2,0-0.5,0.2-0.6,0.5l-0.4,1.4c-0.4-0.5-0.6-0.9-1-1.1c-0.7-0.5-1.5-0.7-2.5-0.7c-1.5,0-2.6,0.5-3.6,1.5
			c-0.9,0.9-1.4,2.1-1.4,3.6c0,2.5,1.5,4.9,4.7,7.2c0,0.1,0.1,0.1,0.1,0.1c0.9,0.5,1.5,1.2,1.8,2.1c0.2,0.9,0.5,2.1,0.5,3.7
			c0,1.6-0.1,2.7-0.5,3.3c-0.2,0.5-0.7,0.7-1.5,0.7c-0.9,0-1.7-0.6-2.5-2.1c-0.9-1.5-1.6-3.8-2.2-6.8c0-0.4-0.2-0.5-0.6-0.5
			c-0.4,0-0.6,0.2-0.6,0.6v10.1c0,0.4,0.1,0.6,0.5,0.6c0.2,0,0.5-0.1,0.6-0.5l0.5-2.2c0.4,0.7,0.9,1.4,1.4,1.9
			c0.9,0.9,1.8,1.2,3,1.2c1.7,0,3.1-0.6,4.2-1.6c1-1.2,1.5-2.7,1.5-4.7C154.4,37.7,154.1,36.4,153.6,35.5z"/>
	</g>
	<g>
		<path class="st2" d="M184.2,35.5c-0.5-1.1-1.2-2-2.2-2.7c0-0.1-0.1-0.1-0.2-0.2c-2.8-2.2-4.3-4.3-4.3-6.6c0-1,0.1-1.7,0.5-2.2
			c0.4-0.4,0.9-0.6,1.5-0.6c0.2,0,1,0,1.7,1.5c0.6,1.2,1.2,3.1,1.6,5.6c0,0.2,0.2,0.5,0.6,0.5c0.4,0,0.6-0.2,0.6-0.6v-8.5
			c0-0.4-0.2-0.6-0.5-0.6s-0.5,0.2-0.6,0.5l-0.4,1.4c-0.4-0.5-0.6-0.9-1-1.1c-0.6-0.5-1.5-0.7-2.5-0.7c-1.5,0-2.6,0.5-3.6,1.5
			c-0.9,0.9-1.4,2.1-1.4,3.6c0,2.5,1.5,4.9,4.7,7.2c0,0.1,0.1,0.1,0.1,0.1c0.9,0.5,1.5,1.2,1.8,2.1c0.2,0.9,0.5,2.1,0.5,3.7
			c0,2-0.2,3-0.5,3.3c-0.2,0.2-0.5,0.7-1.5,0.7c-0.9,0-1.7-0.6-2.5-2.1c-0.9-1.6-1.6-3.8-2.2-6.8c0-0.4-0.2-0.5-0.6-0.5
			c-0.4,0-0.6,0.2-0.6,0.6v10.1c0,0.4,0.1,0.6,0.5,0.6c0.2,0,0.5-0.1,0.6-0.5l0.5-2.2c0.4,0.7,0.9,1.4,1.4,1.9
			c0.9,0.9,1.8,1.2,3,1.2c1.6,0,3-0.6,4.2-1.6c1-1.2,1.5-2.7,1.5-4.7C184.9,37.7,184.7,36.4,184.2,35.5z"/>
	</g>
	<g>
		<path class="st2" d="M201.7,12.2h-9.5c-0.2,0-0.5,0.2-0.6,0.5c0,0.2,0.1,0.6,0.4,0.7l3,1.6l0.6,27.7l-3.2,1.5
			c-0.2,0.1-0.5,0.5-0.4,0.7c0,0.2,0.4,0.5,0.6,0.5h8c0.4,0,0.6-0.1,0.6-0.5c0-0.2-0.1-0.6-0.4-0.7l-3.2-1.5l1.2-27.7l3.1-1.6
			c0.2-0.1,0.5-0.5,0.4-0.7C202.3,12.5,202,12.2,201.7,12.2z"/>
	</g>
	<g>
		<path class="st2" d="M217.4,12.6h-12.3c-0.4,0-0.6,0.2-0.6,0.6v11.7c0,0.4,0.1,0.6,0.5,0.6c0.2,0,0.5-0.1,0.6-0.5l2.1-10.5h2.5
			l-1,28.2l-2.5,1.5c-0.2,0.2-0.4,0.5-0.2,0.7c0.1,0.2,0.4,0.5,0.6,0.5h7.9c0.4,0,0.6-0.1,0.7-0.4c0.1-0.4,0-0.6-0.2-0.7l-2.5-1.6
			l-0.6-28.1h2.3l2.2,10.5c0,0.4,0.2,0.5,0.6,0.5c0.2,0,0.5-0.2,0.5-0.6V13.2C218,12.8,217.8,12.6,217.4,12.6z"/>
	</g>
</g>
</svg>
